<mxfile host="app.diagrams.net" modified="2024-04-26T11:21:01.568Z" agent="Mozilla/5.0 (Windows NT 10.0; Win64; x64) AppleWebKit/537.36 (KHTML, like Gecko) Chrome/123.0.0.0 Safari/537.36" version="24.3.0" etag="sJ-zM1A-HYm1QX1ddveo" type="github">
  <diagram name="Page-1" id="ODezv5MZX94fJVm3UGTc">
    <mxGraphModel>
      <root>
        <mxCell id="0" />
        <mxCell id="1" parent="0" />
      </root>
    </mxGraphModel>
  </diagram>
</mxfile>
